<svg xmlns="http://www.w3.org/2000/svg" xmlns:xlink="http://www.w3.org/1999/xlink" width="28" height="16" viewBox="0 0 28 16">
  <defs>
    <path id="icon-column-small-right-a" d="M15,32 L33,32 L33,30.2222222 L15,30.2222222 L15,32 L15,32 Z M22,20 L22,21.7777778 L38,21.7777778 L38,20 L22,20 L22,20 Z M22,23 L22,24.7777778 L38,24.7777778 L38,23 L22,23 L22,23 Z M22,26 L22,27.7777778 L38,27.7777778 L38,26 L22,26 L22,26 Z M10,28.4455559 L20,28.4455559 L20,19.5555556 L10,19.5555556 L10,28.4455559 L10,28.4455559 Z M15,16 L15,17.7777778 L33,17.7777778 L33,16 L15,16 L15,16 Z"/>
  </defs>
  <g fill="none" fill-rule="evenodd" transform="translate(-10 -16)">
    <use fill="#666" xlink:href="#icon-column-small-right-a"/>
  </g>
</svg>
